<svg xmlns="http://www.w3.org/2000/svg" data-name="Layer 1" width="100" height="125"><rect id="backgroundrect" width="100%" height="100%" x="0" y="0" fill="none" stroke="none"/><title>animals</title><g class="currentLayer"><title>Layer 1</title><path d="M82.92032789230346,60.73540950775146 l-4.5600000000000005,-4.41 l5.46,-4.58 l-7.92,-4.19 l2.68,-8.84 L71.41032789230347,35.475409507751465 l-3.49,-6.1 l-5.14,0.43000000000000005 l2.11,-6.52 L52.35032789230347,29.635409507751465 L48.93032789230347,19.305409507751463 L45.50032789230347,29.635409507751465 L32.970327892303466,23.295409507751465 l2.11,6.52 l-5.14,-0.43000000000000005 L26.460327892303468,35.475409507751465 L19.280327892303468,38.71540950775146 l2.68,8.84 l-7.92,4.19 l5.46,4.58 l-4.5600000000000005,4.42 l-5.65,20.1 l16.36,6.8 L48.93032789230347,105.69540950775146 l23.3,-18.08 l16.34,-7.83 zM56.970327892303466,87.65540950775147 l-4.9,3.5300000000000002 H45.790327892303466 l-4.9,-3.5300000000000002 l1.2,-2.36 L42.53032789230347,85.47540950775146 l6.4,-3.56 L55.330327892303465,85.47540950775146 l0.44000000000000006,-0.16000000000000003 zm-1.46,-4.39 l-6.41,-3.56 l-0.08000000000000002,-0.14 l-0.09000000000000002,0 l-0.09000000000000002,0 l-0.08000000000000002,0.14 l-6.41,3.56 l-2,-0.7100000000000001 l-2.14,-4.69 l0,0 l1.81,-5.15 l8.8,4.82 l8.84,-4.82 l1.82,5.15 l0.06000000000000001,0 L57.480327892303464,82.55540950775146 zM40.09032789230346,41.945409507751464 h0 l7.82,-2 V51.475409507751465 l-7.41,3.2800000000000002 l-2.49,-2.8600000000000003 H32.95032789230347 L34.88032789230347,57.475409507751465 l4,-1.6400000000000001 L35.53032789230347,73.37540950775147 l-3.89,-6.13 L29.870327892303468,55.14540950775147 l5,-11.870000000000001 zm17,14.94 l3.42,17.74 L53.760327892303465,55.39540950775147 zm-5.87,-2.6 l6.25,17.74 H40.36032789230347 l6.25,-17.74 L48.540327892303466,53.475409507751465 h0.78 zM37.32032789230347,74.62540950775147 l3.42,-17.74 l3.36,-1.49 zm25,-1.26 L58.95032789230347,55.80540950775146 l4,1.6400000000000001 l1.9300000000000002,-5.52 H59.830327892303465 l-2.49,2.8600000000000003 L49.93032789230347,51.475409507751465 V39.92540950775147 l7.8,1.9500000000000002 l0,0.08000000000000002 l0.12000000000000001,0 l4.85,1.21 v0 L63.45032789230346,43.475409507751465 l4.54,11.620000000000001 L66.23032789230346,67.24540950775148 zM75.31032789230346,39.475409507751465 L65.13032789230347,42.10540950775146 l-0.09000000000000002,0 l-0.18000000000000002,-0.47000000000000003 l-3.55,-0.8900000000000001 l9.42,-3.33 zM61.510327892303465,27.245409507751464 l-1.56,4.8100000000000005 L66.81032789230346,31.475409507751465 l2.45,4.28 L57.78032789230347,39.825409507751466 l-7.85,-2 V28.695409507751464 L51.18032789230347,32.475409507751465 zM31.050327892303468,31.475409507751465 l6.86,0.5700000000000001 l-1.56,-4.8100000000000005 L46.67032789230347,32.475409507751465 l1.26,-3.8 v9.19 l-7.75,2 L28.60032789230347,35.765409507751464 zM27.180327892303467,37.37540950775146 l9.56,3.38 l-2.43,0.6300000000000001 v0 L34.18032789230347,41.41540950775146 l-0.6900000000000002,0.18000000000000002 l-0.09000000000000002,0.21000000000000002 l-0.6300000000000001,0.31000000000000005 L22.560327892303466,39.475409507751465 zM11.700327892303466,79.67540950775147 l5,-17.87 l5.77,-5.58 l-4.88,-4.09 l6.75,-3.5700000000000003 l0,-0.06000000000000001 L32.18032789230347,44.615409507751465 L27.810327892303466,54.88540950775146 l1.9,13.07 l6.41,10.07 l2.79,6.12 L40.18032789230347,84.60540950775146 L38.330327892303465,88.27540950775146 L45.18032789230347,93.18540950775146 h2.79 v9.21 L26.770327892303467,85.97540950775146 zm59.57,6.19 L49.93032789230347,102.39540950775147 V93.18540950775146 h2.79 l6.8100000000000005,-4.91 l-1.87,-3.66 l1.28,-0.46 l2.79,-6.12 L68.18032789230347,67.95540950775145 l1.9,-13.06 L66.12032789230346,44.825409507751466 L73.52032789230347,48.475409507751465 l0,0.06000000000000001 l6.75,3.5700000000000003 l-4.88,4.09 L81.18032789230347,61.80540950775146 l5,16.92 z" id="svg_1" class="" stroke="#ffffff" stroke-opacity="1" fill="#ffffff" fill-opacity="1"/></g></svg>